<svg xmlns="http://www.w3.org/2000/svg" xmlns:svgjs="http://svgjs.com/svgjs" xmlns:xlink="http://www.w3.org/1999/xlink" width="288" height="288"><svg xmlns="http://www.w3.org/2000/svg" width="288" height="288" viewBox="0 0 48 48"><linearGradient id="a" x1="11.274" x2="36.726" y1="9.271" y2="34.723" gradientUnits="userSpaceOnUse"><stop class="stopColord43a02 svgShape" offset="0" stop-color="#d42602"/><stop class="stopColorb9360c svgShape" offset="1" stop-color="#b9290c"/></linearGradient><path fill="url(#a)" d="M36.902,34.536C40.052,31.294,42,26.877,42,22c0-9.94-8.06-18-18-18S6,12.06,6,22c0,4.877,1.948,9.294,5.098,12.536c0.018,0.019,0.03,0.04,0.048,0.059l0.059,0.059c0.047,0.048,0.094,0.095,0.142,0.142l11.239,11.239c0.781,0.781,2.047,0.781,2.828,0l11.239-11.239c0.048-0.047,0.095-0.094,0.142-0.142l0.059-0.059C36.873,34.576,36.885,34.554,36.902,34.536z"/><radialGradient id="b" cx="24" cy="22.5" r="9.5" gradientUnits="userSpaceOnUse"><stop class="stopColor000000 svgShape" offset=".177"/><stop class="stopColor000000 svgShape" offset="1" stop-opacity="0"/></radialGradient><circle cx="24" cy="22.5" r="9.5" fill="url(#b)"/><circle cx="24" cy="22" r="8" fill="#f9f9f9" class="colorf9f9f9 svgShape"/><radialGradient id="c" cx="23.842" cy="43.905" r="13.637" gradientUnits="userSpaceOnUse"><stop class="stopColor000000 svgShape" offset=".177"/><stop class="stopColor000000 svgShape" offset="1" stop-opacity="0"/></radialGradient><path fill="url(#c)" d="M24,30c-4.747,0-8.935,2.368-11.467,5.982l10.052,10.052c0.781,0.781,2.047,0.781,2.828,0l10.052-10.052C32.935,32.368,28.747,30,24,30z"/><path fill="#de310d" d="M24,32c-4.196,0-7.884,2.157-10.029,5.42l8.615,8.615c0.781,0.781,2.047,0.781,2.828,0l8.615-8.615C31.884,34.157,28.196,32,24,32z" class="colorde490d svgShape"/></svg></svg>