<svg xmlns="http://www.w3.org/2000/svg" viewBox="0 0 50 50">
  <path d="M14 4C8.4886661 4 4 8.4886661 4 14L4 36C4 41.511334 8.4886661 46 14 46L36 46C41.511334 46 46 41.511334 46 36L46 14C46 8.4886661 41.511334 4 36 4L14 4 z M 14 6L36 6C40.430666 6 44 9.5693339 44 14L44 36C44 40.430666 40.430666 44 36 44L14 44C9.5693339 44 6 40.430666 6 36L6 14C6 9.5693339 9.5693339 6 14 6 z M 13 15C11.35503 15 10 16.35503 10 18L10 32C10 33.64497 11.35503 35 13 35L37 35C38.64497 35 40 33.64497 40 32L40 18C40 16.35503 38.64497 15 37 15L13 15 z M 13.414062 17L36.583984 17L27.677734 25.892578C26.18494 27.382984 23.796834 27.382819 22.304688 25.890625L13.414062 17 z M 38 18.412109L38 31.587891L31.402344 25L38 18.412109 z M 12 18.414062L18.585938 25L12 31.585938L12 18.414062 z M 29.988281 26.412109L36.585938 33L13.414062 33L20 26.414062L20.890625 27.304688C23.146478 29.56054 26.832638 29.562194 29.089844 27.308594L29.988281 26.412109 z" fill="#FFFFFF" />
</svg>