<svg xmlns="http://www.w3.org/2000/svg" xmlns:svgjs="http://svgjs.com/svgjs" xmlns:xlink="http://www.w3.org/1999/xlink" width="288" height="288"><svg xmlns="http://www.w3.org/2000/svg" width="288" height="288" viewBox="0 0 50 50"><path fill="#fc9985" d="M14 3.9902344C8.4886661 3.9902344 4 8.4789008 4 13.990234L4 35.990234C4 41.501568 8.4886661 45.990234 14 45.990234L36 45.990234C41.511334 45.990234 46 41.501568 46 35.990234L46 13.990234C46 8.4789008 41.511334 3.9902344 36 3.9902344L14 3.9902344 z M 18.005859 12.033203C18.633859 12.060203 19.210594 12.414031 19.558594 12.957031C19.954594 13.575031 20.569141 14.534156 21.369141 15.785156C22.099141 16.926156 22.150047 18.399844 21.498047 19.589844L20.033203 21.673828C19.637203 22.237828 19.558219 22.959703 19.824219 23.595703C20.238219 24.585703 21.040797 26.107203 22.466797 27.533203C23.892797 28.959203 25.414297 29.761781 26.404297 30.175781C27.040297 30.441781 27.762172 30.362797 28.326172 29.966797L30.410156 28.501953C31.600156 27.849953 33.073844 27.901859 34.214844 28.630859C35.465844 29.430859 36.424969 30.045406 37.042969 30.441406C37.585969 30.789406 37.939797 31.366141 37.966797 31.994141C38.120797 35.558141 35.359641 37.001953 34.556641 37.001953C34.000641 37.001953 27.316344 37.761656 19.777344 30.222656C12.238344 22.683656 12.998047 15.999359 12.998047 15.443359C12.998047 14.640359 14.441859 11.879203 18.005859 12.033203 z" class="colorFFF svgShape"/></svg></svg>